<svg xmlns="http://www.w3.org/2000/svg" xmlns:xlink="http://www.w3.org/1999/xlink" width="1080" zoomAndPan="magnify" viewBox="0 0 810 809.999993" height="1080" preserveAspectRatio="xMidYMid meet" version="1.0"><path fill="#737373" d="M 331.980469 15.4375 C 155.609375 17.367188 14.1875 161.949219 16.132812 338.324219 C 18.054688 514.675781 162.621094 656.101562 339.007812 654.164062 C 404.140625 653.457031 467.496094 632.828125 520.605469 595.066406 L 703.015625 777.441406 C 723.902344 798.054688 757.578125 797.839844 778.191406 776.929688 C 798.597656 756.242188 798.597656 722.972656 778.191406 702.261719 L 595.78125 519.882812 C 698.011719 376.160156 664.34375 176.75 520.605469 74.511719 C 465.539062 35.386719 399.515625 14.695312 331.980469 15.4375 Z M 328.140625 70.714844 C 473.792969 66.644531 595.183594 181.402344 599.25 327.085938 C 599.3125 329.648438 599.371094 332.207031 599.371094 334.765625 C 599.425781 480.472656 481.335938 598.652344 335.636719 598.738281 C 189.921875 598.792969 71.734375 480.730469 71.664062 335.007812 C 71.664062 334.929688 71.664062 334.859375 71.664062 334.777344 C 71.503906 191.816406 185.222656 74.714844 328.140625 70.714844 Z M 328.140625 70.714844 " fill-opacity="1" fill-rule="nonzero"/><path fill="#737373" d="M 264.285156 139.105469 C 278.726562 133.9375 294.617188 141.4375 299.796875 155.878906 C 304.9375 170.214844 297.574219 186.027344 283.28125 191.316406 C 222.957031 213.273438 182.804688 270.609375 182.804688 334.792969 C 182.804688 350.144531 170.371094 362.578125 155.03125 362.578125 C 139.695312 362.578125 127.257812 350.144531 127.257812 334.792969 C 127.265625 247.25 182.011719 169.042969 264.285156 139.105469 Z M 264.285156 139.105469 " fill-opacity="1" fill-rule="nonzero"/></svg>
